PathFileType	4	(X/Y/Z)	Patient4_TMGait_0pt4_01_right_27.trc.trc
DataRate	CameraRate	NumFrames	NumMarkers	Units	OrigDataRate	OrigDataStartFrame	OrigNumFrames
76.923076923077	76.923076923077	5	33	mm	76.923076923077	18	       141
Frame#	Time	Sacral			L.Shoulder			Chest			R.Shoulder			Neck			R.ASIS			L.ASIS			R.Thigh.Superior			R.Thigh.Lateral			R.Thigh.Inferior			R.Patella			L.Thigh.Superior			L.Thigh.Lateral			L.Thigh.Inferior			L.Patella			L.Shank.Superior			L.Shank.Lateral			L.Shank.Inferior			R.Shank.Superior			R.Shank.Lateral			R.Shank.Inferior			R.Heel			R.Midfoot.Superior			R.Midfoot.Lateral			R.Toe			L.Heel			L.Midfoot.Lateral			L.Midfoot.Superior			L.Toe			L.Elbow			L.Wrist			R.Elbow			R.Wrist			
		X1	Y1	Z1	X2	Y2	Z2	X3	Y3	Z3	X4	Y4	Z4	X5	Y5	Z5	X6	Y6	Z6	X7	Y7	Z7	X8	Y8	Z8	X9	Y9	Z9	X10	Y10	Z10	X11	Y11	Z11	X12	Y12	Z12	X13	Y13	Z13	X14	Y14	Z14	X15	Y15	Z15	X16	Y16	Z16	X17	Y17	Z17	X18	Y18	Z18	X19	Y19	Z19	X20	Y20	Z20	X21	Y21	Z21	X22	Y22	Z22	X23	Y23	Z23	X24	Y24	Z24	X25	Y25	Z25	X26	Y26	Z26	X27	Y27	Z27	X28	Y28	Z28	X29	Y29	Z29	X30	Y30	Z30	X31	Y31	Z31	X32	Y32	Z32	X33	Y33	Z33	

18	35.041000000000	881.939958176599	1008.210830952944	423.280702273667	1101.184625556383	1425.483137814364	242.147649366166	1171.680023441681	1366.983984970336	422.626904226500	1058.125617062271	1451.893755184602	573.011826331980	1057.944943851533	1496.007568791994	390.058484613049	1095.870691450705	948.313199500206	569.840427568808	1114.699963108026	963.337510748163	293.339558281561	1169.410832370568	768.990515045043	547.027412591620	1120.375534650209	649.344775612518	619.994327560216	1210.332319543925	608.424852402946	543.181279745309	1239.551976338064	525.089678798160	562.176497874082	1126.746339191508	739.723078538736	323.902421508740	1021.573315725500	636.616265440707	256.977522074062	1086.899412771295	548.497179546032	323.464201136492	1075.080586761853	482.089811044954	333.002991959338	1044.798920898124	413.545754579429	325.032815004590	947.056231565370	305.268760160590	273.748374745441	988.134275292359	192.050202903729	349.836402811644	1220.319239337382	436.944385832530	574.462492047550	1160.945558237971	328.173645580174	640.964734210026	1226.133287633978	237.590669686282	592.108927204636	1126.834013981541	51.947000473723	568.893674284948	1289.887821006794	125.952135100786	607.945484891984	1211.355066561207	49.828585188245	642.053954570953	1413.738647328564	88.721696882512	632.706849003239	851.434575255984	40.424325890873	393.523613154806	927.444920874185	35.515768657306	315.011641935210	1010.892924399446	96.010953457712	343.488760369509	1139.725365119849	41.362648803378	319.861669248135	1190.444038938203	1096.358708380690	110.234515723561	1426.089261766717	984.972655860739	140.538902114765	915.944871254969	1139.781922824825	689.687490426120	921.819182640894	879.982985658900	723.371998060516	
19	35.054000000000	882.523784485649	1007.210346198790	425.435995540846	1099.811029832248	1424.765325264145	243.904204585694	1170.705898153939	1366.792833942970	424.386488639992	1056.998636127803	1451.415119902236	574.865234235650	1056.542248147810	1495.343955548178	391.724008248556	1096.665880147589	947.157197616357	571.537981145942	1115.074990341223	963.209183964306	294.961864554984	1170.431926244241	767.257106244147	548.414053179296	1119.876692857467	647.193494283248	620.206637884633	1210.028492279215	606.475070575579	543.810814100857	1237.736282166800	522.621616433757	561.974969652815	1125.343914411677	738.948025710773	324.757198458065	1018.732545489374	636.850155617558	257.817350817426	1083.259218794501	547.994649789186	323.825482625463	1070.950195620125	481.755713171734	333.256582822995	1040.413472059319	413.469593432255	325.236321154760	942.119096012976	305.684737260437	274.039713618962	983.107375010037	192.106289074743	349.767437467796	1217.616202101093	433.876246633001	574.051476121471	1156.889554713726	325.862778656524	640.396420919721	1220.323536383025	234.452166531586	591.099939627201	1117.836821075233	50.986781951521	568.028727690104	1282.130825443234	121.974304161596	606.251020621510	1202.407147004174	47.695830238757	641.012876973904	1405.349738704642	82.664757420765	630.964722123404	846.181760563090	40.495080373664	393.455624459016	922.187529383381	35.497142545663	314.999569400962	1005.658633758845	96.018498015399	343.419873216571	1134.456931459290	41.340973453489	319.847849598823	1189.468028549573	1095.201427849477	112.978369406700	1424.738309025054	982.504016049408	142.337123358986	917.344361783151	1138.190977024133	691.938641788522	928.802947751111	878.337825340197	724.420089558007	
20	35.067000000000	883.264544217552	1006.101963818781	427.833655347342	1098.309186080317	1424.017795982528	245.874585973037	1169.760200718647	1366.574409088237	426.297604781743	1055.964929196729	1450.834499159438	576.966553210026	1055.123957051726	1494.616589272771	393.651785367404	1097.752970080558	945.900116741075	573.268493482204	1115.522708920183	963.045599725011	296.664783751189	1171.666701840928	765.279634032632	549.773069575263	1119.444504964480	644.891834324829	620.333050770055	1209.757281475714	604.306276314168	544.316658449213	1235.798565184987	519.830746245031	561.585915045669	1124.054538857825	738.131530382792	325.553510357270	1015.925007471287	637.085685364790	258.744600255033	1079.714941770946	547.483762304458	324.201749021685	1066.934261843534	481.387830856999	333.554813186461	1036.119301689580	413.372349585921	325.492857711443	937.217573478737	306.125300264564	274.402429603559	978.093259979740	192.154216617417	349.727426461537	1214.635631185714	430.517625434426	573.490918045749	1152.399060592789	323.370489624300	639.741466695134	1213.832864411969	231.005068778845	589.944468833356	1107.755797148084	49.986008145437	567.232925380030	1273.456280646449	117.687264286537	604.387565634408	1192.439689132330	45.516015267481	640.004024579616	1396.048261535256	76.127250470350	629.018398561905	840.931008321886	40.569365226851	393.394333547768	916.930368013627	35.488050624401	314.999377252315	1000.421848671488	96.030103572414	343.360595203631	1129.186260575150	41.310729426415	319.831881049481	1188.038124055384	1093.928047953644	115.804042282631	1422.654479945291	979.253320491158	143.976997656617	919.063423264805	1136.453003469889	694.586485454588	936.745819286608	876.719706532744	725.813231013590	
21	35.080000000000	884.136109044674	1004.914804963785	430.459026003831	1096.689808008929	1423.258415110612	248.064179066584	1168.860251984485	1366.336810988179	428.359515983256	1055.052246183196	1450.162384178336	579.319488093366	1053.718614697782	1493.847299667815	395.855511132006	1099.110157936048	944.575241474368	575.019188816624	1116.029456552051	962.846661836812	298.449851798765	1172.993889876293	763.036464151034	551.076915126171	1118.980122133913	642.491907222440	620.410526409255	1209.357937669962	601.914775420615	544.678833899561	1233.657974286078	516.787356478430	561.014428548471	1122.918748043891	737.288822981324	326.309003296090	1013.226412363924	637.313938732651	259.777147767072	1076.355336063691	546.966566346481	324.624184991643	1063.124708367292	480.971277138062	333.928722313166	1031.996801655182	413.242394923837	325.826832106677	932.410459461192	306.595199642469	274.855376985591	973.121873501962	192.191136001003	349.729963182506	1211.415786126069	426.993589904091	572.813055776744	1147.686455149966	320.737277763635	639.045031481662	1207.012269356060	227.395187820094	588.689498365754	1097.260617507504	48.907498136929	566.553456263724	1264.378744327381	113.371854235479	602.449063217196	1182.107524656557	43.412240158884	639.093051897882	1386.415031706290	69.635120845451	626.988075617046	835.685480806252	40.666475083361	393.340524361010	911.678326077666	35.499406763875	315.012817016983	995.188623885102	96.050057545570	343.314726874775	1123.917969183390	41.264568471804	319.812330211319	1186.173359475644	1092.551284479224	118.731605115024	1419.821855361198	975.223412742559	145.444914483125	921.086339734437	1134.601769817610	697.610408170034	945.574168093093	875.205097639685	727.557126052062	
22	35.093000000000	885.100257239871	1003.695112225125	433.286675598859	1094.974244991289	1422.521294747392	250.473524701364	1168.023798444301	1366.099199142921	430.569531164664	1054.288140594482	1449.423809639711	581.922450302587	1052.357475372630	1493.073724096293	398.342550113737	1100.695047494852	943.238231377618	576.785252777095	1116.574969473628	962.620440431803	300.321269837757	1174.306118699419	760.563241840215	552.302576419024	1118.423900469317	640.083584845753	620.482864414554	1208.713930465830	599.359098709156	544.886781581977	1231.298391364563	513.616986316808	560.284078492465	1121.976923316956	736.448205176195	327.062330722766	1010.728696558803	637.528734191918	260.936940891578	1073.287717520567	546.450731398065	325.131839568257	1059.635402063703	480.493693207538	334.411630087867	1028.141076156995	413.071252972851	326.264406576879	927.769289888685	307.106433157950	275.417771359039	968.230636818221	192.219009322694	349.787369957018	1208.039369854486	423.460905021122	572.059358324173	1142.981366766189	318.048957832315	638.358135011853	1200.201496487741	223.794336824379	587.387446994317	1086.950160670984	47.763008021375	566.016729262304	1255.364926195307	109.306673289523	600.541189696676	1171.987525225420	41.507905062055	638.328560536389	1376.963177728926	63.656725390404	625.006986233915	830.449141896971	40.817101188632	393.293552705905	906.437368459328	35.545839921209	315.040409373908	989.969267844786	96.084388678715	343.283146562366	1118.658208251225	41.194450314365	319.787075113631	1183.889701295066	1091.095648619308	121.786417411265	1416.208751199020	970.429098350662	146.731664349229	923.416785593942	1132.675283421640	700.983975836749	955.214714144058	873.870770692487	729.652453754932	
